<?xml version="1.0" encoding="UTF-8"?>
<svg version="1.1" viewBox="0 0 1600 1600" width="100" height="100" xmlns="http://www.w3.org/2000/svg">
<path transform="translate(596,494)" d="m0 0h424l43 1 8 2 8 6 8 9 10 13 6 7 8 12 1 3 1 81 4 15 5 8 29 29 8 7 13 12 10 9 14 12 17 16 19 19 11 9 4 5 2 9v156l-1 34-1 1-378 1h-131l-350-2-1-2v-178l2-17 9-10 11-10 14-11 22-18 26-24 10-9 12-13 11-11 9-11 9-13 5-11 1-5v-61l2-15 7-14 12-15 11-16 4-5 7-4zm364 117-28 1-2 1v191l1 10 1 2 6 1 46 1h36l16-1 2-2 1-115v-51l-1-37-3-1zm-184 1-6 1-1 26v160l1 15 1 2 7 1 54 1h22l19-1 2-1 1-9 2-128v-65l-1-2zm-170 1-2 4-1 50v142l2 7 8 1h79l14-1 1-1 2-140-1-60-2-2z" fill="#FEFEFE"/>
<path transform="translate(383,1075)" d="m0 0 66 1 255 1h273l175-1h66l34 1 2 5-3 18-3 10-7 14-11 16-12 16-13 18-14 18-11 13-9 11-14 17-8 10-9 11-14 18-11 13-9 11-11 13-9 11-11 14-4 5-7 5-4 1-8-1h-406l-64-1-14-2-5-6-4-9-8-10-10-10-9-11-9-10-8-10-11-14-10-13-13-18-14-18-10-13-33-42-13-16-20-28-5-12-4-19v-6z" fill="#FEFEFE"/>
<path transform="translate(502,255)" d="m0 0h359l228 1 2 1v14l-1 9-2 107-2 2-137 1h-207l-201 1-20 2-12 6-16 15-7 7-10 13-7 10-8 13-8 18-3 14-1 65-2 13-6 11-12 12-7 8-9 10-16 16-7 8-3 4h-2l-2 4-13 16-7 8-7 9-3 6-2-2-2-30-2-72-2-92v-51l1-14 10-19 13-14 9-11 9-10 9-11 7-7 7-8 9-9 7-8 7-7 8-7 11-11 8-7 15-13 11-12 6-7z" fill="#FEFEFE"/>
</svg>
