<?xml version="1.0" encoding="UTF-8"?>
<svg version="1.1" viewBox="0 0 1600 1600" width="100" height="100" xmlns="http://www.w3.org/2000/svg">
<path transform="translate(712,223)" d="m0 0h187l4 2v9l-3 17-3 32-4 14-11 11-8 7-10 9-4 3-2 14-1 24-1 48-1 87-1 62 58 1h44l59-1 2-20 2-5 7-2 36-2h13l4 2v97l-2 39-3 4-7 1-20-4-13-2-10-3-8-6-2-10 1-9-2-1-57-2h-17l-37 1-1 7-1 21-1 59-1 434-2 39-3 28-3 17-9 30-9 21-9 17-11 17-10 16-10 14-9 10-10 7-10 5h-7l-14-7-10-9-7-8-13-20-10-18-9-14-9-17-8-20-8-25-4-18-2-18-1-40v-528l-8 1-98 2-11 1v16l-6 7-11 4-20 4-23 1-4-2-2-9v-16l1-39v-64l1-10 3-3h7l36 8 12 3 8 5 5 6 23 4 29 2 31 1h69l1-102v-126l-4-7-19-13-9-8-7-11-3-9-4-31-3-25v-5l1-1z" fill="#FEFEFE"/>
<path transform="translate(507,283)" d="m0 0 5 1 13 12 40 40 8 7 13 13 11 9 14 13 8 7 4 5-2 4-16 11-24 15-22 14-15 11-18 13-10 9-10 8-10 9h-2l-2 4-18 18-9 11-16 20-11 16-13 18-14 26-15 30-14 32-7 14-15-1-53-7-64-8-16-3-2-1 1-5 6-12 11-29 15-35 14-32 11-22 12-21 6-11 11-17 12-17 10-14 9-11 12-14 9-11 37-37 8-7 15-13 10-8 16-13 11-9 13-10 20-14z" fill="#FEFEFE"/>
<path transform="translate(1084,283)" d="m0 0 5 2 19 13 15 9 18 12 21 16 17 14 14 12 15 14 22 22 7 8 11 12 11 14 14 18 16 23 12 20 9 16 14 26 15 32 17 42 13 34 3 6-1 5-10 3-24 3-85 8-19 2h-9l-4-2-4-6-13-31-9-20-8-16-11-20-15-23-10-14-18-22-22-24-14-14-11-9-12-10-17-12-20-13-26-16-21-13-15-8-1-2 6-8 11-9 12-11 11-10 8-7 11-11 7-8 11-12 7-8 23-23z" fill="#FEFEFE"/>
<path transform="translate(1200,979)" d="m0 0 88 4 38 3 32 2 1 4-8 20-8 19-6 15-8 16-13 25-13 23-10 17-22 33-13 16-8 10-10 11-9 11-32 32-8 7-10 9-8 7-13 11-20 16-11 7-8 7-8 5h-3l-4-7-11-9-7-7-8-7-13-12-11-12-10-9-15-15v-2l-4-2-11-11-9-7-4-5 2-4 7-6 18-13 10-7 13-9 14-12 11-9 12-11 13-12 37-37 15-20 15-22 15-26 7-14 5-13 2-9zm140 12-2 2h5l-1-2z" fill="#FEFEFE"/>
<path transform="translate(389,981)" d="m0 0h12l4 9 13 33 10 18 14 20 14 18 8 10 13 14 7 8 22 22 8 7 11 10 18 13 41 28 9 8 2 3-1 4-13 13-11 9-33 31-38 38-8 7-4 4-5-1-11-9-11-8-16-12-11-9-14-12-15-13-13-12-30-30-9-11-12-14-10-13-10-14-11-16-12-19-13-23-15-30-11-27-13-37-3-7v-3l11 1 19-1 61-3z" fill="#FEFEFE"/>
<path transform="translate(218,762)" d="m0 0 18 1 87 7 168 11 10 2 3 5-1 62-1 15-3 3-15 2-56 5-66 4-68 4-61 4h-12l-1-3-1-33-1-64z" fill="#FEFEFE"/>
<path transform="translate(1352,764)" d="m0 0h26v75l-1 39-1 9-2 2-23-2-87-7-84-7-46-3-31-1-5-2-2-10-2-39v-32l6-3 36-4 85-7 90-6z" fill="#FEFEFE"/>
</svg>
