<?xml version="1.0" encoding="UTF-8"?>
<svg version="1.1" viewBox="0 0 1600 1600" width="100" height="100" xmlns="http://www.w3.org/2000/svg">
<path transform="translate(587,603)" d="m0 0h317l55 1h43l14 1 2 12v116l-1 21-1 3-2 1-9 1-103 1h-332l-1 6-1 33v47l2 14 3 9 8 4 6 1 70 1 244 1h105l48-1 13-2 5-3 10-2 2-5 1-234 1-24 1-1h33l109 1 19 1 1 1v30l-1 158-1 199v48l-1 7-2 2-225-2-56-1-252-1h-51l-60 1-152 2h-97l-4-2-1-191v-252l1-1h163z" fill="#FEFEFE"/>
<path transform="translate(938,1149)" d="m0 0h210l98 1 2 1 1 3 1 154-3 2-55 1-323 1h-512l-11-1-1-1v-145l1-15h11l14 1 167 1 90-1 69 1h30l101-1 47-1z" fill="#FEFEFE"/>
<path transform="translate(835,255)" d="m0 0h181l1 1v217l-1 28-2 2h-65l-75-1-35-1-4-2z" fill="#FEFEFE"/>
<path transform="translate(589,254)" d="m0 0 179 1 2 2v243l-2 2h-54l-83-1-40-1-3-2v-243z" fill="#FEFEFE"/>
<path transform="translate(345,255)" d="m0 0h179v21l-1 58-2 166-5 3-164-1-6-1-1-75z" fill="#FEFEFE"/>
<path transform="translate(1085,255)" d="m0 0h162l4 2-1 152-1 58-1 36-1 1h-96l-66-1-1-1v-55z" fill="#FEFEFE"/>
<path transform="translate(842,861)" d="m0 0h35l-4 2h-28z" fill="#FEFEFE"/>
<path transform="translate(836,861)" d="m0 0h5v2l-5-1z" fill="#FEFEFE"/>
<path transform="translate(832,861)" d="m0 0h3v2h-3z" fill="#FEFEFE"/>
<path transform="translate(884,861)" d="m0 0h5v1h-5z" fill="#FEFEFE"/>
<path transform="translate(878,861)" d="m0 0h3l-1 2z" fill="#FEFEFE"/>
<path transform="translate(836,863)" d="m0 0 3 1z" fill="#FEFEFE"/>
<path transform="translate(857,864)" d="m0 0" fill="#FEFEFE"/>
<path transform="translate(858,863)" d="m0 0" fill="#FEFEFE"/>
<path transform="translate(892,862)" d="m0 0" fill="#FEFEFE"/>
<path transform="translate(824,862)" d="m0 0" fill="#FEFEFE"/>
<path transform="translate(828,861)" d="m0 0" fill="#FEFEFE"/>
</svg>
