<?xml version="1.0" encoding="UTF-8"?>
<svg version="1.1" viewBox="0 0 1600 1600" width="100" height="100" xmlns="http://www.w3.org/2000/svg">
<path transform="translate(672,352)" d="m0 0h252l2 2-1 19-1 250-1 51h320l1 1-1 122v126l-1 1h-60l-107-1h-153l1 2v121l1 144 1 53-28 1-214-1-8-1-1-1v-316h-320l-1-1v-111l1-129-1-5v-8l60 1 197 2 67 1-1-4-1-49-1-92v-137l-1-31-1-2z" fill="#FEFEFE"/>
<path transform="translate(351,211)" d="m0 0 5 1 10 9 4 5 8 7 16 17 15 14 13 13 8 7 15 14 13 12 8 7 16 17 8 9 4 7-1 5-9 11-7 7-7 8-66 66-8 7-41 41h-5l-10-9-13-12-26-26-7-8-9-9-7-8-34-34-9-11-12-14-4-7-2-4 1-5 9-17 9-11 12-13 14-14h2v-2l8-7 23-23 7-8 7-7 7-8 9-9 11-9 10-7z" fill="#FEFEFE"/>
<path transform="translate(350,1099)" d="m0 0 5 2 13 14 8 7 20 20 7 8 56 56 8 7 22 22 6 8-1 5-7 8-12 14-20 20-8 7-18 18-8 7-9 9-8 7-13 12-12 12-10 9-14 10-5 3-6-2-6-5-10-8-28-28-7-8-17-17-8-7-15-14-12-11-10-10-7-10-7-14v-6l6-11 9-11 14-14 7-8 23-23 7-8 8-8 7-8 11-12 9-11 30-30z" fill="#FEFEFE"/>
<path transform="translate(1244,1099)" d="m0 0 5 3 7 6 6 7 8 7 14 14 7 8 23 23 7 8 15 16 14 15 23 23 8 10v8l-4 9-9 13-10 11-7 8-56 56h-2l-2 4h-2l-1 3-8 7-9 10-14 11-8 6-6-2-7-6-8-6-26-26-8-7-14-14-8-7-15-14-7-7-8-7-12-12-9-11-9-12-7-8 1-4 7-8 18-20 47-47 7-8 10-10 7-8 15-16 25-25z" fill="#FEFEFE"/>
<path transform="translate(1245,213)" d="m0 0 6 2 17 14 8 7 39 39 5 4 25 25 8 7 6 5 7 8 8 10 5 8 1 3v12l-8 11-10 10-7 8-14 15-15 15-7 8-21 21-7 8-15 15-1 2h-2l-2 4-13 12-7 7-4 3-4-2-10-9-98-98-11-14-16-16-2-3 1-5 7-9 13-15 12-13 8-8 7-8 8-7 22-22 8-7 33-33 13-10z" fill="#FEFEFE"/>
</svg>
