<?xml version="1.0" encoding="UTF-8"?>
<svg version="1.1" viewBox="0 0 1600 1600" width="100" height="100" xmlns="http://www.w3.org/2000/svg">
<path transform="translate(799,168)" d="m0 0 5 5 8 17 10 24 12 25 15 29 8 16 17 35 9 17 13 28 8 18 7 15 13 26 10 22 10 19 12 23 11 23 15 28 28 56 12 23 11 23 8 15 8 16 14 30 20 40 12 26 13 27 13 28 16 34 11 23 8 17 10 19 10 21 10 19 13 26 9 19 23 46 9 19 22 44 11 23 17 36 12 27 16 35 16 32 6 11 3 6v2l-2 1h-920l-166-1-3-1 2-6 14-24 19-39 15-33 12-25 13-27 13-28 10-19 8-16 12-25 12-22 8-16 16-33 9-17 11-23 19-39 16-33 9-19 16-32 14-30 8-16 18-38 11-23 8-16 9-19 10-19 9-17 5-12 10-19 8-16 9-17 5-12 10-19 16-31 8-16 9-19 10-19 8-17 11-23 16-33 12-26 23-46 8-18 14-29 9-20 4-8 10-21 18-33zm-5 330-5 4-7 16-8 16-18 38-13 27-20 40-10 21-12 26-14 30-12 24-11 23-16 32-8 17-9 17-55 110-19 39-9 20-6 12-13 28-16 36-9 21-8 16-7 15-6 12v2l11 1 43 1 308 1h255l16-1-2-5-10-22-7-14-11-23-13-27-12-27-15-31-16-32-16-33-25-50-3-7-28-56-12-25-8-16-9-17-8-18-14-29-10-19-7-16-16-32-12-26-8-16-5-11-11-23-5-11-11-24-10-20-10-13-2-1z" fill="#FEFEFE"/>
<path transform="translate(592,284)" d="m0 0h20l-1 5-7 11-10 17-19 37-9 17-11 23-13 26-11 23-10 21-8 16-15 32-11 23-16 34-15 33-17 36-16 32-9 17-9 19-8 16-9 17-6 11-8 14-9 14h-2v-13l1-19 1-386v-30l-1-43 4-2h125z" fill="#FEFEFE"/>
<path transform="translate(981,284)" d="m0 0 28 1h220l2 1v408l1 44 1 19 1 7v17l-5-5-7-12-9-14-12-22-8-18-8-16-8-18-10-19-8-16-23-47-6-13-9-20-4-10-7-15-17-36-9-19-8-16-17-35-8-16-13-25-11-23-22-44-9-15-14-19z" fill="#FEFEFE"/>
<path transform="translate(799,732)" d="m0 0 4 4 8 17 7 16 10 22 11 23 43 86 13 28 34 72 10 21 2 7-3 2-17 1h-262l-3-1 1-8 6-9 11-24 21-42 9-20 12-26 11-20 13-28 11-21 11-23 7-15 9-21 7-14 8-18z" fill="#FEFEFE"/>
</svg>
