<?xml version="1.0" encoding="UTF-8"?>
<svg version="1.1" viewBox="0 0 1600 1600" width="100" height="100" xmlns="http://www.w3.org/2000/svg">
<path transform="translate(789,189)" d="m0 0h19l5 4 4 35 12 104 12 82 7 50 6 38 6 48 6 45 3 21 7 14 6 4 23 7 11 2 24-11 14-7 17-10 26-14 22-12 19-10 19-11 66-36 19-10 27-14 28-14 28-13 20-10 23-13 16-8 19-9 8-2 6 3 6 8-1 6-8 10-7 8-12 12-8 7-16 15-8 7-9 9-8 7-17 17-8 7-20 20-8 7-14 13-8 7-7 7-8 7-11 10-8 7-24 22-16 15-10 9-8 7-10 9-13 12-11 9-12 11-16 16-8 7-12 12-3 5v7l5 27v15l-1 18-3 10-6 9-1 3v11l6 11 10 13 15 16 27 27 7 8 10 10 7 8 16 17 14 15 7 8 11 12 7 8 8 8 7 8 21 21 7 8 39 39 7 8 26 26 8 7 11 11 14 16 6 11 1 4v13l1 5v9l-4 6-6-2-15-8-23-15-21-13-18-11-19-12-29-17-15-10-23-14-38-24-15-9-27-16-22-14-32-19-16-10-26-15-17-10-25-12-8-5h-3l-4 12-5 21-5 33-8 61-7 45-7 41-5 37-9 76-6 57-6 36-3 4-12 4-18-7-4-5-2-7v-8l-2-15-2-9-7-58-4-34-9-64-13-91-13-101-6-31-1-5-10 4-17 10-17 11-44 28-25 15-19 12-28 17-24 15-46 28-19 12-23 15-24 15-28 17-19 12-29 17-15 9-13 6-3-1v-4h-2l-3-7v-13l4-13 6-10 9-10 22-22 7-8 19-19 7-6 7-8 29-29 5-6 8-7 9-10 23-23 7-8 7-7 7-8 10-10 7-8 9-9 7-8 10-10 7-8 12-13 7-8 8-7 21-21 8-7 8-9 4-10-1-9-5-22-4-16-1-17 3-20 4-16 1-5-6-9-14-12-16-15-11-9-7-7-8-7-12-11-8-7-13-12-12-11-11-10-8-7-16-15-13-12-12-11-17-16-10-9-7-7-8-7-15-14-8-7-16-15-7-7-8-7-9-9-8-7-16-16-8-7-12-11-9-13-3-10 1-7 2-2 11 1 12 5 18 10 20 9 24 11 28 13 41 21 19 10 33 17 23 13 15 8 22 12 19 11 24 14 16 8 29 16 16 9 22 10 14 3h7l10-5 9-6 8-6 7-11 5-17 4-25 4-33 8-50 6-36 8-56 2-15 3-26 7-58 7-53 5-50 3-5z" fill="#FEFEFE"/>
<path transform="translate(298,622)" d="m0 0 6 5 7 8 12 11 11 9 12 10 11 9 14 11 16 13 7 6-2 4-9 10-10 10-6 7-8 7-28 28-8 7-7 7h-2l-2 4-14 13-1 3v7l4 8 13 17 11 12 27 27 8 7 17 16 14 12 10 9 9 7 2 5-4 7-9 10-9 11-12 13-7 8-10 11-7 8-10 12-8 11-4 5-2 3-3-1-2-5-5-2-14-15-31-31-7-8-16-15-33-33-2-1v-2l-4-2-18-18-8-7-7-7-8-7-9-9-8-7-8-8v-2l-3-1-9-11-9-12-5-11-2-8 5-10 12-14 20-20 8-7 7-7 8-7 9-9 8-7 13-13 8-7 43-43 7-8 12-12 9-10 7-8z" fill="#FEFEFE"/>
<path transform="translate(1294,625)" d="m0 0 5 1 12 12 7 8 10 10 7 8 36 36 8 7 11 11 8 7 10 9 16 16 2 1v2l4 2 20 20v2l4 2 10 9 7 8 6 9v10l-2 11-9 13-13 12-28 28-8 7-10 10h-2l-2 4-8 7-8 8-8 7-17 17-8 7-28 28-7 8-10 10-7 8-9 10-9 11-13 13-7-11-5-5-12-14-15-16-9-9-9-11-12-13-11-15-3-6 1-5 8-8 11-9 12-11 10-8 14-13 11-9 17-17 9-8 10-8 5-6 4-9v-13l-2-9-10-12-12-9-10-8-13-12-12-11-14-14-7-9-11-9-9-9 1-4 11-6 16-12 12-11 8-7 10-8 12-11 15-14 6-7z" fill="#FEFEFE"/>
<path transform="translate(679,252)" d="m0 0 2 1-4 20-6 32-8 60-6 37-7 36-6 20-7 11-14 15-7 7-11-2-18-6-39-19-19-10-21-12-10-7-4-4 4-9 31-31 8-7 12-11 33-33 8-7 8-8 8-7 16-15 13-12 8-7 12-11 8-7 11-10z" fill="#FEFEFE"/>
<path transform="translate(917,259)" d="m0 0 7 3 12 11 17 13 11 10 10 8 12 11 10 9 14 13 8 7 15 14 16 16 8 7 28 28 11 9 6 9-1 4-12 8-20 13-14 8-23 12-26 12-20 8h-6l-5-5-9-11-11-13-4-9-6-36-9-71-8-44-4-17-7-23z" fill="#FEFEFE"/>
<path transform="translate(955,1154)" d="m0 0h7l20 8 28 13 16 8 18 10 21 11 10 8 3 3v3h2l-1 5-8 10-11 12-8 7-20 20-8 7-8 8-8 7-14 12-10 9-8 7-12 11-13 12-7 7-8 7-9 8-9 5 5-15 7-47 6-33 5-30 7-60 4-25z" fill="#FEFEFE"/>
<path transform="translate(635,1149)" d="m0 0h5l4 8 5 24 15 103 8 59 3 17v6l-4-2-11-10-11-9-13-13-8-7-17-16-8-7-14-13-8-7-12-11-30-30-7-8-9-9-7-8v-3l16-8 14-8 13-8 20-11 36-20z" fill="#FEFEFE"/>
</svg>
